<svg width="5986" height="45" viewBox="0 0 5986 45" fill="none" xmlns="http://www.w3.org/2000/svg">
<g clip-path="url(#clip0_79_5)">
<rect y="18" width="5985.35" height="27"/>
<rect y="18.0027" width="25" height="25" transform="rotate(-45 0 18.0027)"/>
<rect x="35" y="18.0027" width="25" height="25" transform="rotate(-45 35 18.0027)"/>
<rect x="70" y="18.0027" width="25" height="25" transform="rotate(-45 70 18.0027)"/>
<rect x="105" y="18.0027" width="25" height="25" transform="rotate(-45 105 18.0027)"/>
<rect x="140" y="18.0027" width="25" height="25" transform="rotate(-45 140 18.0027)"/>
<rect x="175" y="18.0027" width="25" height="25" transform="rotate(-45 175 18.0027)"/>
<rect x="210" y="18.0027" width="25" height="25" transform="rotate(-45 210 18.0027)"/>
<rect x="245" y="18.0027" width="25" height="25" transform="rotate(-45 245 18.0027)"/>
<rect x="280" y="18.0027" width="25" height="25" transform="rotate(-45 280 18.0027)"/>
<rect x="315" y="18.0027" width="25" height="25" transform="rotate(-45 315 18.0027)"/>
<rect x="350" y="18.0027" width="25" height="25" transform="rotate(-45 350 18.0027)"/>
<rect x="385" y="18.0027" width="25" height="25" transform="rotate(-45 385 18.0027)"/>
<rect x="420" y="18.0027" width="25" height="25" transform="rotate(-45 420 18.0027)"/>
<rect x="455" y="18.0027" width="25" height="25" transform="rotate(-45 455 18.0027)"/>
<rect x="490" y="18.0027" width="25" height="25" transform="rotate(-45 490 18.0027)"/>
<rect x="525" y="18.0027" width="25" height="25" transform="rotate(-45 525 18.0027)"/>
<rect x="560" y="18.0027" width="25" height="25" transform="rotate(-45 560 18.0027)"/>
<rect x="595" y="18.0027" width="25" height="25" transform="rotate(-45 595 18.0027)"/>
<rect x="630" y="18.0027" width="25" height="25" transform="rotate(-45 630 18.0027)"/>
<rect x="665" y="18.0027" width="25" height="25" transform="rotate(-45 665 18.0027)"/>
<rect x="700" y="18.0027" width="25" height="25" transform="rotate(-45 700 18.0027)"/>
<rect x="735" y="18.0027" width="25" height="25" transform="rotate(-45 735 18.0027)"/>
<rect x="770" y="18.0027" width="25" height="25" transform="rotate(-45 770 18.0027)"/>
<rect x="805" y="18.0027" width="25" height="25" transform="rotate(-45 805 18.0027)"/>
<rect x="840" y="18.0027" width="25" height="25" transform="rotate(-45 840 18.0027)"/>
<rect x="875" y="18.0027" width="25" height="25" transform="rotate(-45 875 18.0027)"/>
<rect x="910" y="18.0027" width="25" height="25" transform="rotate(-45 910 18.0027)"/>
<rect x="945" y="18.0027" width="25" height="25" transform="rotate(-45 945 18.0027)"/>
<rect x="980" y="18.0027" width="25" height="25" transform="rotate(-45 980 18.0027)"/>
<rect x="1015" y="18.0027" width="25" height="25" transform="rotate(-45 1015 18.0027)"/>
<rect x="1050" y="18.0027" width="25" height="25" transform="rotate(-45 1050 18.0027)"/>
<rect x="1085" y="18.0027" width="25" height="25" transform="rotate(-45 1085 18.0027)"/>
<rect x="1120" y="18.0027" width="25" height="25" transform="rotate(-45 1120 18.0027)"/>
<rect x="1155" y="18.0027" width="25" height="25" transform="rotate(-45 1155 18.0027)"/>
<rect x="1190" y="18.0027" width="25" height="25" transform="rotate(-45 1190 18.0027)"/>
<rect x="1225" y="18.0027" width="25" height="25" transform="rotate(-45 1225 18.0027)"/>
<rect x="1260" y="18.0027" width="25" height="25" transform="rotate(-45 1260 18.0027)"/>
<rect x="1295" y="18.0027" width="25" height="25" transform="rotate(-45 1295 18.0027)"/>
<rect x="1330" y="18.0027" width="25" height="25" transform="rotate(-45 1330 18.0027)"/>
<rect x="1365" y="18.0027" width="25" height="25" transform="rotate(-45 1365 18.0027)"/>
<rect x="1400" y="18.0027" width="25" height="25" transform="rotate(-45 1400 18.0027)"/>
<rect x="1435" y="18.0027" width="25" height="25" transform="rotate(-45 1435 18.0027)"/>
<rect x="1470" y="18.0027" width="25" height="25" transform="rotate(-45 1470 18.0027)"/>
<rect x="1505" y="18.0027" width="25" height="25" transform="rotate(-45 1505 18.0027)"/>
<rect x="1540" y="18.0027" width="25" height="25" transform="rotate(-45 1540 18.0027)"/>
<rect x="1575" y="18.0027" width="25" height="25" transform="rotate(-45 1575 18.0027)"/>
<rect x="1610" y="18.0027" width="25" height="25" transform="rotate(-45 1610 18.0027)"/>
<rect x="1645" y="18.0027" width="25" height="25" transform="rotate(-45 1645 18.0027)"/>
<rect x="1680" y="18.0027" width="25" height="25" transform="rotate(-45 1680 18.0027)"/>
<rect x="1715" y="18.0027" width="25" height="25" transform="rotate(-45 1715 18.0027)"/>
<rect x="1750" y="18.0027" width="25" height="25" transform="rotate(-45 1750 18.0027)"/>
<rect x="1785" y="18.0027" width="25" height="25" transform="rotate(-45 1785 18.0027)"/>
<rect x="1820" y="18.0027" width="25" height="25" transform="rotate(-45 1820 18.0027)"/>
<rect x="1855" y="18.0027" width="25" height="25" transform="rotate(-45 1855 18.0027)"/>
<rect x="1890" y="18.0027" width="25" height="25" transform="rotate(-45 1890 18.0027)"/>
<rect x="1925" y="18.0027" width="25" height="25" transform="rotate(-45 1925 18.0027)"/>
<rect x="1960" y="18.0027" width="25" height="25" transform="rotate(-45 1960 18.0027)"/>
<rect x="1995" y="18.0027" width="25" height="25" transform="rotate(-45 1995 18.0027)"/>
<rect x="2030" y="18.0027" width="25" height="25" transform="rotate(-45 2030 18.0027)"/>
<rect x="2065" y="18.0027" width="25" height="25" transform="rotate(-45 2065 18.0027)"/>
<rect x="2100" y="18.0027" width="25" height="25" transform="rotate(-45 2100 18.0027)"/>
<rect x="2135" y="18.0027" width="25" height="25" transform="rotate(-45 2135 18.0027)"/>
<rect x="2170" y="18.0027" width="25" height="25" transform="rotate(-45 2170 18.0027)"/>
<rect x="2205" y="18.0027" width="25" height="25" transform="rotate(-45 2205 18.0027)"/>
<rect x="2240" y="18.0027" width="25" height="25" transform="rotate(-45 2240 18.0027)"/>
<rect x="2275" y="18.0027" width="25" height="25" transform="rotate(-45 2275 18.0027)"/>
<rect x="2310" y="18.0027" width="25" height="25" transform="rotate(-45 2310 18.0027)"/>
<rect x="2345" y="18.0027" width="25" height="25" transform="rotate(-45 2345 18.0027)"/>
<rect x="2380" y="18.0027" width="25" height="25" transform="rotate(-45 2380 18.0027)"/>
<rect x="2415" y="18.0027" width="25" height="25" transform="rotate(-45 2415 18.0027)"/>
<rect x="2450" y="18.0027" width="25" height="25" transform="rotate(-45 2450 18.0027)"/>
<rect x="2485" y="18.0027" width="25" height="25" transform="rotate(-45 2485 18.0027)"/>
<rect x="2520" y="18.0027" width="25" height="25" transform="rotate(-45 2520 18.0027)"/>
<rect x="2555" y="18.0027" width="25" height="25" transform="rotate(-45 2555 18.0027)"/>
<rect x="2590" y="18.0027" width="25" height="25" transform="rotate(-45 2590 18.0027)"/>
<rect x="2625" y="18.0027" width="25" height="25" transform="rotate(-45 2625 18.0027)"/>
<rect x="2660" y="18.0027" width="25" height="25" transform="rotate(-45 2660 18.0027)"/>
<rect x="2695" y="18.0027" width="25" height="25" transform="rotate(-45 2695 18.0027)"/>
<rect x="2730" y="18.0027" width="25" height="25" transform="rotate(-45 2730 18.0027)"/>
<rect x="2765" y="18.0027" width="25" height="25" transform="rotate(-45 2765 18.0027)"/>
<rect x="2800" y="18.0027" width="25" height="25" transform="rotate(-45 2800 18.0027)"/>
<rect x="2835" y="18.0027" width="25" height="25" transform="rotate(-45 2835 18.0027)"/>
<rect x="2870" y="18.0027" width="25" height="25" transform="rotate(-45 2870 18.0027)"/>
<rect x="2905" y="18.0027" width="25" height="25" transform="rotate(-45 2905 18.0027)"/>
<rect x="2940" y="18.0027" width="25" height="25" transform="rotate(-45 2940 18.0027)"/>
<rect x="2975" y="18.0027" width="25" height="25" transform="rotate(-45 2975 18.0027)"/>
<rect x="3010" y="18.0027" width="25" height="25" transform="rotate(-45 3010 18.0027)"/>
<rect x="3045" y="18.0027" width="25" height="25" transform="rotate(-45 3045 18.0027)"/>
<rect x="3080" y="18.0027" width="25" height="25" transform="rotate(-45 3080 18.0027)"/>
<rect x="3115" y="18.0027" width="25" height="25" transform="rotate(-45 3115 18.0027)"/>
<rect x="3150" y="18.0027" width="25" height="25" transform="rotate(-45 3150 18.0027)"/>
<rect x="3185" y="18.0027" width="25" height="25" transform="rotate(-45 3185 18.0027)"/>
<rect x="3220" y="18.0027" width="25" height="25" transform="rotate(-45 3220 18.0027)"/>
<rect x="3255" y="18.0027" width="25" height="25" transform="rotate(-45 3255 18.0027)"/>
<rect x="3290" y="18.0027" width="25" height="25" transform="rotate(-45 3290 18.0027)"/>
<rect x="3325" y="18.0027" width="25" height="25" transform="rotate(-45 3325 18.0027)"/>
<rect x="3360" y="18.0027" width="25" height="25" transform="rotate(-45 3360 18.0027)"/>
<rect x="3395" y="18.0027" width="25" height="25" transform="rotate(-45 3395 18.0027)"/>
<rect x="3430" y="18.0027" width="25" height="25" transform="rotate(-45 3430 18.0027)"/>
<rect x="3465" y="18.0027" width="25" height="25" transform="rotate(-45 3465 18.0027)"/>
<rect x="3500" y="18.0027" width="25" height="25" transform="rotate(-45 3500 18.0027)"/>
<rect x="3535" y="18.0027" width="25" height="25" transform="rotate(-45 3535 18.0027)"/>
<rect x="3570" y="18.0027" width="25" height="25" transform="rotate(-45 3570 18.0027)"/>
<rect x="3605" y="18.0027" width="25" height="25" transform="rotate(-45 3605 18.0027)"/>
<rect x="3640" y="18.0027" width="25" height="25" transform="rotate(-45 3640 18.0027)"/>
<rect x="3675" y="18.0027" width="25" height="25" transform="rotate(-45 3675 18.0027)"/>
<rect x="3710" y="18.0027" width="25" height="25" transform="rotate(-45 3710 18.0027)"/>
<rect x="3745" y="18.0027" width="25" height="25" transform="rotate(-45 3745 18.0027)"/>
<rect x="3780" y="18.0027" width="25" height="25" transform="rotate(-45 3780 18.0027)"/>
<rect x="3815" y="18.0027" width="25" height="25" transform="rotate(-45 3815 18.0027)"/>
<rect x="3850" y="18.0027" width="25" height="25" transform="rotate(-45 3850 18.0027)"/>
<rect x="3885" y="18.0027" width="25" height="25" transform="rotate(-45 3885 18.0027)"/>
<rect x="3920" y="18.0027" width="25" height="25" transform="rotate(-45 3920 18.0027)"/>
<rect x="3955" y="18.0027" width="25" height="25" transform="rotate(-45 3955 18.0027)"/>
<rect x="3990" y="18.0027" width="25" height="25" transform="rotate(-45 3990 18.0027)"/>
<rect x="4025" y="18.0027" width="25" height="25" transform="rotate(-45 4025 18.0027)"/>
<rect x="4060" y="18.0027" width="25" height="25" transform="rotate(-45 4060 18.0027)"/>
<rect x="4095" y="18.0027" width="25" height="25" transform="rotate(-45 4095 18.0027)"/>
<rect x="4130" y="18.0027" width="25" height="25" transform="rotate(-45 4130 18.0027)"/>
<rect x="4165" y="18.0027" width="25" height="25" transform="rotate(-45 4165 18.0027)"/>
<rect x="4200" y="18.0027" width="25" height="25" transform="rotate(-45 4200 18.0027)"/>
<rect x="4235" y="18.0027" width="25" height="25" transform="rotate(-45 4235 18.0027)"/>
<rect x="4270" y="18.0027" width="25" height="25" transform="rotate(-45 4270 18.0027)"/>
<rect x="4305" y="18.0027" width="25" height="25" transform="rotate(-45 4305 18.0027)"/>
<rect x="4340" y="18.0027" width="25" height="25" transform="rotate(-45 4340 18.0027)"/>
<rect x="4375" y="18.0027" width="25" height="25" transform="rotate(-45 4375 18.0027)"/>
<rect x="4410" y="18.0027" width="25" height="25" transform="rotate(-45 4410 18.0027)"/>
<rect x="4445" y="18.0027" width="25" height="25" transform="rotate(-45 4445 18.0027)"/>
<rect x="4480" y="18.0027" width="25" height="25" transform="rotate(-45 4480 18.0027)"/>
<rect x="4515" y="18.0027" width="25" height="25" transform="rotate(-45 4515 18.0027)"/>
<rect x="4550" y="18.0027" width="25" height="25" transform="rotate(-45 4550 18.0027)"/>
<rect x="4585" y="18.0027" width="25" height="25" transform="rotate(-45 4585 18.0027)"/>
<rect x="4620" y="18.0027" width="25" height="25" transform="rotate(-45 4620 18.0027)"/>
<rect x="4655" y="18.0027" width="25" height="25" transform="rotate(-45 4655 18.0027)"/>
<rect x="4690" y="18.0027" width="25" height="25" transform="rotate(-45 4690 18.0027)"/>
<rect x="4725" y="18.0027" width="25" height="25" transform="rotate(-45 4725 18.0027)"/>
<rect x="4760" y="18.0027" width="25" height="25" transform="rotate(-45 4760 18.0027)"/>
<rect x="4795" y="18.0027" width="25" height="25" transform="rotate(-45 4795 18.0027)"/>
<rect x="4830" y="18.0027" width="25" height="25" transform="rotate(-45 4830 18.0027)"/>
<rect x="4865" y="18.0027" width="25" height="25" transform="rotate(-45 4865 18.0027)"/>
<rect x="4900" y="18.0027" width="25" height="25" transform="rotate(-45 4900 18.0027)"/>
<rect x="4935" y="18.0027" width="25" height="25" transform="rotate(-45 4935 18.0027)"/>
<rect x="4970" y="18.0027" width="25" height="25" transform="rotate(-45 4970 18.0027)"/>
<rect x="5005" y="18.0027" width="25" height="25" transform="rotate(-45 5005 18.0027)"/>
<rect x="5040" y="18.0027" width="25" height="25" transform="rotate(-45 5040 18.0027)"/>
<rect x="5075" y="18.0027" width="25" height="25" transform="rotate(-45 5075 18.0027)"/>
<rect x="5110" y="18.0027" width="25" height="25" transform="rotate(-45 5110 18.0027)"/>
<rect x="5145" y="18.0027" width="25" height="25" transform="rotate(-45 5145 18.0027)"/>
<rect x="5180" y="18.0027" width="25" height="25" transform="rotate(-45 5180 18.0027)"/>
<rect x="5215" y="18.0027" width="25" height="25" transform="rotate(-45 5215 18.0027)"/>
<rect x="5250" y="18.0027" width="25" height="25" transform="rotate(-45 5250 18.0027)"/>
<rect x="5285" y="18.0027" width="25" height="25" transform="rotate(-45 5285 18.0027)"/>
<rect x="5320" y="18.0027" width="25" height="25" transform="rotate(-45 5320 18.0027)"/>
<rect x="5355" y="18.0027" width="25" height="25" transform="rotate(-45 5355 18.0027)"/>
<rect x="5390" y="18.0027" width="25" height="25" transform="rotate(-45 5390 18.0027)"/>
<rect x="5425" y="18.0027" width="25" height="25" transform="rotate(-45 5425 18.0027)"/>
<rect x="5460" y="18.0027" width="25" height="25" transform="rotate(-45 5460 18.0027)"/>
<rect x="5495" y="18.0027" width="25" height="25" transform="rotate(-45 5495 18.0027)"/>
<rect x="5530" y="18.0027" width="25" height="25" transform="rotate(-45 5530 18.0027)"/>
<rect x="5565" y="18.0027" width="25" height="25" transform="rotate(-45 5565 18.0027)"/>
<rect x="5600" y="18.0027" width="25" height="25" transform="rotate(-45 5600 18.0027)"/>
<rect x="5635" y="18.0027" width="25" height="25" transform="rotate(-45 5635 18.0027)"/>
<rect x="5670" y="18.0027" width="25" height="25" transform="rotate(-45 5670 18.0027)"/>
<rect x="5705" y="18.0027" width="25" height="25" transform="rotate(-45 5705 18.0027)"/>
<rect x="5740" y="18.0027" width="25" height="25" transform="rotate(-45 5740 18.0027)"/>
<rect x="5775" y="18.0027" width="25" height="25" transform="rotate(-45 5775 18.0027)"/>
<rect x="5810" y="18.0027" width="25" height="25" transform="rotate(-45 5810 18.0027)"/>
<rect x="5845" y="18.0027" width="25" height="25" transform="rotate(-45 5845 18.0027)"/>
<rect x="5880" y="18.0027" width="25" height="25" transform="rotate(-45 5880 18.0027)"/>
<rect x="5915" y="18.0027" width="25" height="25" transform="rotate(-45 5915 18.0027)"/>
<rect x="5950" y="18.0027" width="25" height="25" transform="rotate(-45 5950 18.0027)"/>
</g>
<defs>
<clipPath id="clip0_79_5">
<rect width="5985.35" height="45" fill="white"/>
</clipPath>
</defs>
</svg>
