<svg width="6000" height="45" viewBox="0 0 6000 45" fill="none" xmlns="http://www.w3.org/2000/svg">
<path d="M100 15C66.6667 -5 33.3333 -5 0 15V45H1000V15C966.667 35 933.333 35 900 15C866.667 -5 833.333 -5 800 15C766.667 35 733.333 35 700 15C666.667 -5 633.333 -5 600 15C566.667 35 533.333 35 500 15C466.667 -5 433.333 -5 400 15C366.667 35 333.333 35 300 15C266.667 -5 233.333 -5 200 15C166.667 35 133.333 35 100 15Z" />
<path d="M1100 15C1066.67 -5 1033.33 -5 1000 15V45H2000V15C1966.67 35 1933.33 35 1900 15C1866.67 -5 1833.33 -5 1800 15C1766.67 35 1733.33 35 1700 15C1666.67 -5 1633.33 -5 1600 15C1566.67 35 1533.33 35 1500 15C1466.67 -5 1433.33 -5 1400 15C1366.67 35 1333.33 35 1300 15C1266.67 -5 1233.33 -5 1200 15C1166.67 35 1133.33 35 1100 15Z" />
<path d="M2100 15C2066.67 -5 2033.33 -5 2000 15V45H3000V15C2966.67 35 2933.33 35 2900 15C2866.67 -5 2833.33 -5 2800 15C2766.67 35 2733.33 35 2700 15C2666.67 -5 2633.33 -5 2600 15C2566.67 35 2533.33 35 2500 15C2466.67 -5 2433.33 -5 2400 15C2366.67 35 2333.33 35 2300 15C2266.67 -5 2233.33 -5 2200 15C2166.67 35 2133.33 35 2100 15Z" />
<path d="M3100 15C3066.67 -5 3033.33 -5 3000 15V45H4000V15C3966.67 35 3933.33 35 3900 15C3866.67 -5 3833.33 -5 3800 15C3766.67 35 3733.33 35 3700 15C3666.67 -5 3633.33 -5 3600 15C3566.67 35 3533.33 35 3500 15C3466.67 -5 3433.33 -5 3400 15C3366.67 35 3333.33 35 3300 15C3266.67 -5 3233.33 -5 3200 15C3166.67 35 3133.33 35 3100 15Z" />
<path d="M4100 15C4066.67 -5 4033.33 -5 4000 15V45H5000V15C4966.67 35 4933.33 35 4900 15C4866.67 -5 4833.33 -5 4800 15C4766.67 35 4733.33 35 4700 15C4666.67 -5 4633.33 -5 4600 15C4566.67 35 4533.33 35 4500 15C4466.67 -5 4433.33 -5 4400 15C4366.67 35 4333.33 35 4300 15C4266.67 -5 4233.33 -5 4200 15C4166.67 35 4133.33 35 4100 15Z" />
<path d="M5100 15C5066.67 -5 5033.33 -5 5000 15V45H6000V15C5966.67 35 5933.33 35 5900 15C5866.67 -5 5833.33 -5 5800 15C5766.67 35 5733.33 35 5700 15C5666.67 -5 5633.33 -5 5600 15C5566.67 35 5533.33 35 5500 15C5466.67 -5 5433.33 -5 5400 15C5366.67 35 5333.33 35 5300 15C5266.67 -5 5233.33 -5 5200 15C5166.67 35 5133.33 35 5100 15Z" />
</svg>
